<?xml version="1.0" encoding="UTF-8" standalone="no"?>
<svg
   xmlns:dc="http://purl.org/dc/elements/1.1/"
   xmlns:cc="http://creativecommons.org/ns#"
   xmlns:rdf="http://www.w3.org/1999/02/22-rdf-syntax-ns#"
   xmlns:svg="http://www.w3.org/2000/svg"
   xmlns="http://www.w3.org/2000/svg"
   xmlns:sodipodi="http://sodipodi.sourceforge.net/DTD/sodipodi-0.dtd"
   xmlns:inkscape="http://www.inkscape.org/namespaces/inkscape"
   width="363.34167mm"
   height="405.68332mm"
   viewBox="0 0 363.34159 405.68335"
   version="1.1"
   id="svg8"
   inkscape:version="1.0.1 (3bc2e813f5, 2020-09-07)"
   sodipodi:docname="IRCEP.svg">
  <defs
     id="defs2" />
  <sodipodi:namedview
     id="base"
     pagecolor="#ffffff"
     bordercolor="#666666"
     borderopacity="1.0"
     inkscape:pageopacity="0.0"
     inkscape:pageshadow="2"
     inkscape:zoom="0.32"
     inkscape:cx="1133.7029"
     inkscape:cy="649.43278"
     inkscape:document-units="mm"
     inkscape:current-layer="layer1"
     showgrid="false"
     units="mm"
     showguides="true"
     inkscape:window-width="1258"
     inkscape:window-height="999"
     inkscape:window-x="289"
     inkscape:window-y="6"
     inkscape:window-maximized="0"
     inkscape:document-rotation="0">
    <inkscape:grid
       type="xygrid"
       id="grid826" />
  </sodipodi:namedview>
  <metadata
     id="metadata5">
    <rdf:RDF>
      <cc:Work
         rdf:about="">
        <dc:format>image/svg+xml</dc:format>
        <dc:type
           rdf:resource="http://purl.org/dc/dcmitype/StillImage" />
        <dc:title />
      </cc:Work>
    </rdf:RDF>
  </metadata>
  <g
     inkscape:label="Capa 1"
     inkscape:groupmode="layer"
     id="layer1"
     transform="translate(0,108.68583)">
    <rect
       style="fill:#585957;stroke:none;stroke-width:0.25850502;fill-opacity:1"
       id="rect847"
       width="10.168253"
       height="40.745823"
       x="3.0609128"
       y="109.9371" />
    <path
       style="fill:#585957;stroke:none;stroke-width:0.99999994px;stroke-linecap:butt;stroke-linejoin:miter;stroke-opacity:1;fill-opacity:1"
       d="m 214,827.29102 v 111 h -2 l -50,-110 h -50 v 152 h 34 v -118 2.8e-4 l 53,118 49,-2.8e-4 v -153 z"
       transform="matrix(0.26458333,0,0,0.26458333,0,-108.68583)"
       id="path842"
       inkscape:connector-curvature="0"
       sodipodi:nodetypes="ccccccccccccc" />
    <rect
       style="fill:#585957;stroke:none;stroke-width:0.25850502;fill-opacity:1"
       id="rect847-3"
       width="10.168254"
       height="40.745827"
       x="118.53333"
       y="159.67874" />
    <rect
       style="fill:#585957;stroke:none;stroke-width:0.25850502;fill-opacity:1"
       id="rect847-3-6"
       width="10.168255"
       height="40.745827"
       x="164.77164"
       y="109.71974" />
    <path
       style="fill:#585957;stroke:none;stroke-width:0.99999994px;stroke-linecap:butt;stroke-linejoin:miter;stroke-opacity:1;fill-opacity:1"
       d="m 349.79892,824.24672 c -3.75278,0.5681 -7.44753,1.55417 -11.04892,2.75254 -3.92536,1.30616 -7.87671,2.71079 -11.4394,4.81358 -3.89835,2.30091 -7.58645,5.08998 -10.66041,8.41294 -2.68705,2.90471 -5.17716,6.17262 -6.60742,9.86206 -2.85628,7.36794 -4.03286,15.55666 -3.5276,23.4427 0.44039,6.87363 1.48266,14.35036 5.65717,19.87368 4.0287,6.0071 14.0577,13.20268 18.28128,15.35882 4.22358,2.15614 13.83154,5.95766 13.83154,5.95766 0,0 11.51941,4.30577 17.14257,6.78516 2.48464,1.09554 5.14957,1.94151 7.32227,3.57031 2.69732,2.02209 5.66925,4.30817 6.80357,7.48271 1.20533,3.37326 0.99758,7.50327 -0.55357,10.73214 -1.7381,3.61803 -5.42621,6.17268 -9,8 -3.37145,1.72386 -7.31848,2.11882 -11.08929,2.46429 -4.28839,0.39289 -8.62349,-0.0588 -12.91071,-0.46429 -4.36484,-0.41282 -8.76633,-0.8606 -13,-2 -6.20041,-1.6687 -12.05845,-4.491 -17.9375,-7.02232 L 308,977.29102 c 8.20934,2.35339 16.01863,3.71959 24.14258,4.92968 4.37633,0.65187 8.79024,1.24096 13.21484,1.25 11.8934,0.0243 24.17465,0.30544 35.53516,-3.21484 7.56043,-2.34275 14.96862,-6.07059 20.71484,-11.60742 2.03094,-1.96071 4.00943,-4.00041 5.71485,-6.25 1.90577,-2.51388 3.82753,-5.10654 5,-8.03516 2.2824,-5.70103 3.4301,-11.90451 3.75,-18.03711 0.30853,-5.91457 0.0337,-12.04196 -1.78711,-17.67773 -1.75459,-5.4308 -4.97791,-11.05407 -8.57032,-14.82227 -3.77453,-3.88666 -8.5057,-6.78387 -13.21484,-9.46289 -5.02732,-2.86003 -10.5373,-4.77975 -15.89258,-6.96484 -7.38862,-3.01475 -15.99961,-3.69423 -22.39035,-8.47324 -3.61241,-2.70135 -7.83145,-6.28811 -8.17215,-10.78597 -0.38312,-5.05786 3.02153,-10.58497 7.25781,-13.37472 5.93181,-3.90632 10.4254,-3.8144 15.89044,-4.19446 5.95586,-0.4142 11.94837,0.86768 17.78363,2.13006 6.35796,1.37546 11.50593,3.56772 18.60328,5.89559 l 2.81312,-29.955 c 0,0 -7.86467,-2.60778 -14.41636,-3.69169 -9.52501,-1.57582 -12.53836,-1.95228 -18.86373,-2.12974 -8.44814,-0.23701 -16.95793,0.16246 -25.31419,1.42745 z"
       transform="matrix(0.26458333,0,0,0.26458333,0,-108.68583)"
       id="path875"
       inkscape:connector-curvature="0"
       sodipodi:nodetypes="aaaaaaczcaaaaaaaaccaaacaaaacaaaasaaccsaa" />
    <path
       style="fill:#585957;stroke:none;stroke-width:0.26458332px;stroke-linecap:butt;stroke-linejoin:miter;stroke-opacity:1;fill-opacity:1"
       d="m 150.00805,158.80618 c -0.97714,0.0592 -1.95889,0.11034 -2.92388,0.27495 -0.98994,0.16887 -2.00158,0.49523 -2.92336,0.72828 -1.01446,0.38749 -2.01222,0.64535 -3.02668,1.27359 -1.03841,0.7507 -1.69637,1.09636 -2.82056,2.22593 -0.54333,0.75155 -0.96108,1.12637 -1.74822,2.60933 -0.40488,1.01843 -0.89586,2.02985 -1.0035,3.11559 -0.41021,4.53124 0.61541,7.95827 3.6717,10.73059 0.66836,0.60716 1.61468,1.10783 2.73217,1.67831 1.11749,0.57048 3.6596,1.5763 3.6596,1.5763 0,0 3.46304,1.3223 4.53564,1.79524 1.07259,0.47293 1.53334,0.70142 1.93735,0.94464 0.404,0.24322 1.49999,1.13987 1.80011,1.9798 0.31891,0.89251 0.26394,1.98524 -0.14647,2.83955 -0.45987,0.95727 -1.43568,1.63319 -2.38125,2.11666 -0.89203,0.45611 -1.93635,0.56061 -2.93404,0.65201 -1.13464,0.10396 -2.28163,-0.0156 -3.41596,-0.12284 -1.15486,-0.10922 -2.32315,-0.21418 -3.43958,-0.52917 -1.65693,-0.46747 -3.19873,-1.22958 -4.7625,-1.99854 l -0.79375,8.87771 c 2.17205,0.62267 4.23826,0.98414 6.38772,1.30431 1.15791,0.17248 2.32575,0.32834 3.49643,0.33073 3.1468,0.006 6.39621,0.0808 9.40201,-0.85059 2.00036,-0.61985 3.96045,-1.60618 5.4808,-3.07113 0.53736,-0.51877 1.06083,-1.05844 1.51206,-1.65365 0.50423,-0.66513 1.0127,-1.3511 1.32291,-2.12597 0.60389,-1.50839 0.90755,-3.14973 0.99219,-4.77232 0.0816,-1.56489 0.009,-3.1861 -0.47284,-4.67723 -0.46423,-1.4369 -1.31707,-2.92472 -2.26756,-3.92173 -0.99868,-1.02834 -2.25047,-1.79489 -3.49643,-2.50372 -1.33014,-0.75671 -2.78767,-1.26544 -4.20491,-1.84278 -1.77706,-0.72392 -4.17726,-1.26128 -5.38623,-2.0314 -1.26624,-0.80659 -2.80347,-1.96189 -2.882,-3.46114 -0.0659,-1.25837 0.8991,-2.50906 2.1022,-3.14186 1.60676,-0.86311 3.61661,-1.08714 5.26841,-1.05132 0.59551,0.0787 1.15188,0.10733 1.78689,0.18605 l 1.85429,0.31907 c 1.46257,0.35622 1.86024,0.49141 2.82064,0.87061 l 2.18417,0.98692 0.685,-8.41034 c 0,0 -4.45108,-0.80668 -6.69081,-1.11708 -0.71019,-0.0984 -1.42157,-0.20642 -2.13793,-0.23608 -1.25733,-0.0521 -2.51773,0.0267 -3.77383,0.10272 z"
       id="path875-7"
       inkscape:connector-curvature="0"
       sodipodi:nodetypes="aacccccczczzaaaaaaccaaacaaaacaasacccccccaaa" />
    <path
       style="fill:#585957;stroke:none;stroke-width:0.26458332px;stroke-linecap:butt;stroke-linejoin:miter;stroke-opacity:1;fill-opacity:1"
       d="m 183.5952,208.62124 c -0.97714,0.0592 -1.95889,0.11034 -2.92388,0.27495 -0.98994,0.16887 -2.00158,0.49523 -2.92336,0.72828 -1.01446,0.38749 -2.01221,0.64535 -3.02667,1.27359 -1.03842,0.7507 -1.69638,1.09636 -2.82057,2.22593 -0.54333,0.75155 -0.96108,1.12637 -1.74821,2.60933 -0.40489,1.01843 -0.89586,2.02984 -1.00351,3.11559 -0.41021,4.53123 0.61542,7.95826 3.6717,10.73059 0.66837,0.60716 1.61469,1.10783 2.73218,1.6783 1.11748,0.57048 3.65959,1.5763 3.65959,1.5763 0,0 3.46304,1.32231 4.53564,1.79524 1.07259,0.47294 1.53334,0.70143 1.93735,0.94465 0.40401,0.24322 1.49999,1.13987 1.80011,1.9798 0.31891,0.89251 0.26394,1.98524 -0.14646,2.83954 -0.45988,0.95727 -1.43569,1.63319 -2.38125,2.11667 -0.89203,0.4561 -1.93635,0.5606 -2.93405,0.65201 -1.13463,0.10395 -2.28163,-0.0156 -3.41595,-0.12284 -1.15487,-0.10923 -2.32315,-0.21419 -3.43959,-0.52917 -1.65693,-0.46748 -3.19873,-1.22959 -4.7625,-1.99855 l -0.79375,8.87772 c 2.17206,0.62266 4.23826,0.98414 6.38773,1.30431 1.1579,0.17247 2.32575,0.32834 3.49642,0.33073 3.1468,0.006 6.39621,0.0808 9.40201,-0.8506 2.00037,-0.61985 3.96045,-1.60617 5.48081,-3.07113 0.53735,-0.51877 1.06082,-1.05844 1.51205,-1.65364 0.50424,-0.66513 1.0127,-1.35111 1.32292,-2.12597 0.60388,-1.5084 0.90754,-3.14974 0.99218,-4.77232 0.0816,-1.5649 0.009,-3.1861 -0.47283,-4.67723 -0.46424,-1.4369 -1.31708,-2.92473 -2.26757,-3.92173 -0.99868,-1.02834 -2.25047,-1.7949 -3.49643,-2.50372 -1.33014,-0.75672 -2.78766,-1.26544 -4.20491,-1.84278 -1.77706,-0.72392 -4.17725,-1.26129 -5.38623,-2.03141 -1.26623,-0.80658 -2.80346,-1.96188 -2.882,-3.46113 -0.0659,-1.25837 0.8991,-2.50906 2.1022,-3.14186 1.60676,-0.86311 3.61661,-1.08714 5.26841,-1.05132 0.59551,0.0787 1.15188,0.10733 1.78689,0.18605 l 1.8543,0.31907 c 1.46256,0.35622 1.86024,0.49141 2.82064,0.87061 l 2.18416,0.98692 0.68501,-8.41034 c 0,0 -4.45108,-0.80668 -6.69082,-1.11708 -0.71019,-0.0984 -1.42157,-0.20642 -2.13793,-0.23608 -1.25733,-0.0521 -2.51772,0.0267 -3.77383,0.10272 z"
       id="path875-5"
       inkscape:connector-curvature="0"
       sodipodi:nodetypes="aacccccczczzaaaaaaccaaacaaaacaasacccccccaaa" />
    <path
       style="fill:#585957;stroke:none;stroke-width:0.99999994px;stroke-linecap:butt;stroke-linejoin:miter;stroke-opacity:1;fill-opacity:1"
       d="m 459.375,826.05859 -0.0947,29.96742 37.30041,0.0631 -0.0631,123.72141 39.01758,-0.002 v -123.75 h 37.76757 v -30 z"
       transform="matrix(0.26458333,0,0,0.26458333,0,-108.68583)"
       id="path899"
       inkscape:connector-curvature="0"
       sodipodi:nodetypes="ccccccccc" />
    <path
       style="fill:#585957;stroke:none;stroke-width:0.26458332px;stroke-linecap:butt;stroke-linejoin:miter;stroke-opacity:1;fill-opacity:1"
       d="m 188.30212,110.12163 -0.025,7.92887 9.86906,0.0167 -0.0167,32.73462 10.3234,-5.3e-4 V 118.0591 h 9.99267 v -7.93749 z"
       id="path899-3"
       inkscape:connector-curvature="0"
       sodipodi:nodetypes="ccccccccc" />
    <path
       style="fill:#585957;stroke:none;stroke-width:0.26458332px;stroke-linecap:butt;stroke-linejoin:miter;stroke-opacity:1;fill-opacity:1"
       d="m 277.90403,110.05897 -0.0251,7.92888 9.86906,0.0167 -0.0167,32.73461 10.3234,-5.2e-4 v -32.74219 h 9.99267 v -7.9375 z"
       id="path899-5"
       inkscape:connector-curvature="0"
       sodipodi:nodetypes="ccccccccc" />
    <path
       style="fill:#585957;stroke:none;stroke-width:0.26458332px;stroke-linecap:butt;stroke-linejoin:miter;stroke-opacity:1;fill-opacity:1"
       d="m 167.78703,159.76826 -0.0251,7.92888 9.86907,0.0167 -0.0167,32.73462 10.3234,-5.3e-4 v -32.74219 h 9.99267 v -7.9375 z"
       id="path899-6"
       inkscape:connector-curvature="0"
       sodipodi:nodetypes="ccccccccc" />
    <path
       style="fill:#585957;stroke:none;stroke-width:0.26458332px;stroke-linecap:butt;stroke-linejoin:miter;stroke-opacity:1;fill-opacity:1"
       d="m 206.2461,209.37763 -0.0251,7.92888 9.86907,0.0167 -0.0167,32.73462 10.3234,-5.3e-4 v -32.74219 h 9.99267 v -7.9375 z"
       id="path899-2"
       inkscape:connector-curvature="0"
       sodipodi:nodetypes="ccccccccc" />
    <path
       style="fill:#585957;stroke:none;stroke-width:0.26458332px;stroke-linecap:butt;stroke-linejoin:miter;stroke-opacity:1;fill-opacity:1"
       d="m 87.104821,209.3723 -0.02506,7.92888 9.869068,0.0167 -0.0167,32.73461 10.323411,-5.3e-4 v -32.74218 h 9.99267 v -7.9375 z"
       id="path899-9"
       inkscape:connector-curvature="0"
       sodipodi:nodetypes="ccccccccc" />
    <path
       style="fill:#585957;stroke:none;stroke-width:0.99999994px;stroke-linecap:butt;stroke-linejoin:miter;stroke-opacity:1;fill-opacity:1"
       d="m 873.54102,826.20312 c 0.1379,0.0414 -0.044,66.73068 0.004,97.91993 0.003,2.20967 0.36789,5.49516 0.89905,8.18955 1.55441,7.88502 4.34498,18.81082 6.6615,23.17178 3.3119,6.2348 7.72079,12.19969 13.38476,16.41406 7.23701,5.38481 16.21628,8.31043 25.00196,10.35547 8.87301,2.06537 18.19518,2.53011 27.27343,1.76757 8.01667,-0.67337 16.17372,-2.2031 23.48633,-5.55664 4.82101,-2.2109 8.99539,-5.73147 12.87891,-9.34375 3.06207,-2.8482 5.86872,-6.04749 8.08203,-9.5957 3.3115,-5.30874 5.92758,-11.13803 7.57617,-17.17383 1.69744,-6.21478 1.87744,-12.76299 2.27144,-19.19336 1.9615,-32.01257 0.4419,-96.21679 0.4419,-96.21679 h -38.32271 c 0,0 1.51092,66.70483 0,100.00586 -0.12643,2.78659 0.0307,5.65829 -0.75781,8.33398 -1.12805,3.82794 -2.98508,7.55215 -5.55469,10.60547 -3.75981,3.83192 -8.8804,7.15662 -14.14258,8.08203 -3.82639,0.60106 -7.87223,0.73689 -11.61719,-0.25195 -2.94022,-0.77635 -5.71919,-2.35334 -8.02956,-4.33066 -2.55839,-2.18958 -4.67258,-4.99961 -6.11106,-8.04434 -2.18065,-4.61562 -3.48672,-9.79582 -3.53711,-14.90039 -0.2961,-29.99606 0.17904,-100.07914 0,-100.23829 z"
       transform="matrix(0.26458333,0,0,0.26458333,0,-108.68583)"
       id="path944"
       inkscape:connector-curvature="0"
       sodipodi:nodetypes="csasaaaaaaaaccaaccaaascc" />
    <path
       style="fill:#757575;stroke:none;stroke-width:0.17023382px;stroke-linecap:butt;stroke-linejoin:miter;stroke-opacity:1;fill-opacity:1"
       d="m 243.65045,269.19579 c 0.0588,0.004 -0.36504,13.2087 6.4e-4,16.87101 0.36568,3.66231 0.68507,4.00705 1.27167,5.40337 0.5866,1.39631 1.29862,2.10193 2.2513,2.82804 1.21725,0.92777 2.72754,1.43184 4.20529,1.78418 1.49242,0.35585 3.06039,0.43592 4.58734,0.30455 1.3484,-0.11602 2.7204,-0.37958 3.95037,-0.95738 0.81088,-0.38092 1.513,-0.9875 2.1662,-1.60987 0.51504,-0.49073 0.98711,-1.04195 1.35939,-1.65328 0.55699,-0.91466 0.99701,-1.91902 1.2743,-2.95895 0.2855,-1.07076 0.31826,-2.19883 0.38205,-3.3069 0.31754,-5.51627 0,-16.57757 0,-16.57757 h -6.37146 c 0,0 0.25415,11.49284 0,17.2304 -0.0213,0.48012 0.005,0.97489 -0.12746,1.4359 -0.18973,0.65953 -0.50207,1.30119 -0.93428,1.82726 -0.63239,0.66022 -1.49368,1.23304 -2.37876,1.39248 -0.6436,0.10356 -1.3241,0.12697 -1.95399,-0.0434 -0.49454,-0.13376 -0.96197,-0.40547 -1.35056,-0.74615 -0.43032,-0.37725 -0.78593,-0.8614 -1.02788,-1.38599 -0.36677,-0.79524 -0.57865,-1.68814 -0.59493,-2.56725 -0.10838,-5.85404 0.095,-17.29419 0,-17.27045 z"
       id="path944-1"
       inkscape:connector-curvature="0"
       sodipodi:nodetypes="czzaaaaaaaaccaaccaaascc" />
    <path
       style="fill:#585957;stroke:none;stroke-width:0.99999994px;stroke-linecap:butt;stroke-linejoin:miter;stroke-opacity:1;fill-opacity:1"
       d="m 836.41797,1014.625 h -71.50586 v 153.1719 h 38.18359 l -0.26367,-59.75 c 0,0 11.10824,-0.423 16.57227,0.3984 1.99518,0.3 3.97442,0.4096 5.82617,1.6406 1.85175,1.2309 4.07763,3.6321 5.26953,5.0098 1.1919,1.3777 2.17733,2.7481 2.9375,4.3125 7.44975,15.3311 15.4375,48.75 15.4375,48.75 h 40.08984 v -1.7754 c 0,0 -9.20295,-25.8728 -13.5664,-38.8906 -1.68186,-5.0176 -3.02519,-10.1501 -4.86133,-15.1133 -0.89812,-2.4277 -1.73525,-4.9049 -3.00586,-7.1601 -1.18027,-2.0948 -2.68027,-4.006 -4.24219,-5.834 -0.86604,-1.0136 -1.83188,-1.9423 -2.82812,-2.8282 -1.06616,-0.9481 -2.16553,-1.871 -3.35938,-2.6523 -0.6244,-0.4086 -1.27951,-0.7833 -1.97461,-1.0547 -0.44422,-0.1735 -1.38476,-0.3594 -1.38476,-0.3594 l -0.0508,-1.4609 c 0,0 4.94884,-0.9477 7.24609,-1.9336 3.07658,-1.3204 5.96372,-3.1393 8.5625,-5.25 2.37946,-1.9326 4.55023,-4.1793 6.3125,-6.6875 1.6996,-2.419 2.83816,-5.1972 4.00391,-7.9141 0.54571,-1.2718 1.0114,-2.5797 1.39257,-3.9101 0.39239,-1.3696 0.76261,-2.7594 0.91602,-4.1758 0.48457,-4.4738 0.44966,-9.0225 0,-13.5 -0.14657,-1.4594 -0.43371,-2.9137 -0.875,-4.3125 -0.75892,-2.4057 -1.80355,-4.7295 -3.02344,-6.9375 -1.13828,-2.0603 -2.40369,-4.0846 -3.97851,-5.834 -1.87399,-2.0817 -4.11743,-3.8237 -6.40821,-5.4355 -2.91971,-2.0543 -6.13558,-4.0003 -9.27929,-5.3477 -3.14371,-1.3474 -6.16791,-2.4319 -9.49414,-3.2265 -3.32623,-0.7946 -8.06472,-1.4177 -12.64844,-1.9434 z m -33.0625,26.3438 h 20.55607 c 1.12457,0.098 5.01079,0.4016 7.34466,1.2505 2.51511,0.9148 4.93669,2.2678 6.9313,4.0522 1.39635,1.2492 2.46225,2.8619 3.35742,4.5078 1.17153,2.154 2.18138,4.4726 2.56446,6.8945 0.46128,2.9163 0.18461,5.9506 -0.375,8.8496 -0.44932,2.3277 -1.1248,4.6869 -2.36524,6.7071 -0.93775,1.5272 -2.22195,2.8941 -3.71289,3.8886 -2.18025,1.4542 -4.79779,2.1754 -7.33594,2.8282 -2.5346,0.6519 -7.77929,1.0605 -7.77929,1.0605 h -19.17774 c 0,-13.3466 0.007,-26.6926 -0.008,-40.039 z"
       id="path963"
       transform="matrix(0.26458333,0,0,0.26458333,0,-108.68583)"
       inkscape:connector-curvature="0"
       sodipodi:nodetypes="cccccccsccccsccccccccccsccccccccssccczaaaaaaaacccc" />
    <path
       style="fill:#585957;stroke:none;stroke-width:0.26458332px;stroke-linecap:butt;stroke-linejoin:miter;stroke-opacity:1;fill-opacity:1"
       d="M 22.092708,159.61365 H 3.1734576 v 40.52674 H 13.276198 l -0.0698,-15.80886 c 0,0 2.93905,-0.11192 4.38474,0.10541 0.5279,0.0794 1.05157,0.10838 1.54151,0.43408 0.48994,0.32567 1.07887,0.96099 1.39423,1.32551 0.31536,0.36451 0.57609,0.7271 0.77722,1.14101 1.97107,4.05636 4.0845,12.89844 4.0845,12.89844 h 10.6071 v -0.46974 c 0,0 -2.43494,-6.84551 -3.58944,-10.28981 -0.44499,-1.32757 -0.80041,-2.68554 -1.28623,-3.99872 -0.23762,-0.64233 -0.45911,-1.29776 -0.7953,-1.89445 -0.31228,-0.55424 -0.70915,-1.05992 -1.12241,-1.54357 -0.22914,-0.26819 -0.48468,-0.5139 -0.74827,-0.7483 -0.28209,-0.25085 -0.57297,-0.49503 -0.88884,-0.70175 -0.1652,-0.10811 -0.33854,-0.20725 -0.52245,-0.27906 -0.11753,-0.0459 -0.36638,-0.0951 -0.36638,-0.0951 l -0.0134,-0.38653 c 0,0 1.30938,-0.25075 1.91719,-0.5116 0.81401,-0.34935 1.5779,-0.8306 2.2655,-1.38906 0.62956,-0.51133 1.20391,-1.10577 1.67018,-1.7694 0.44969,-0.64003 0.75093,-1.37509 1.05937,-2.09394 0.14438,-0.3365 0.2676,-0.68255 0.36845,-1.03455 0.10382,-0.36237 0.20177,-0.73009 0.24236,-1.10484 0.12821,-1.1837 0.11897,-2.38721 0,-3.57188 -0.0388,-0.38614 -0.11475,-0.77092 -0.23151,-1.14102 -0.2008,-0.63651 -0.47719,-1.25135 -0.79995,-1.83555 -0.30117,-0.54512 -0.63598,-1.08071 -1.05265,-1.54358 -0.49582,-0.55078 -1.0894,-1.01168 -1.6955,-1.43814 -0.77251,-0.54353 -1.62338,-1.05841 -2.45515,-1.41491 -0.83177,-0.3565 -1.63192,-0.64344 -2.51199,-0.85368 -0.88006,-0.21024 -2.13379,-0.3751 -3.34657,-0.51419 z m -8.74778,6.97013 h 5.43879 c 0.29754,0.0259 1.32577,0.10626 1.94328,0.33086 0.66545,0.24204 1.30616,0.60002 1.8339,1.07215 0.36945,0.33052 0.65147,0.75721 0.88832,1.19269 0.30997,0.56991 0.57716,1.18338 0.67851,1.82417 0.12205,0.7716 0.0488,1.57443 -0.0992,2.34146 -0.11888,0.61587 -0.2976,1.24007 -0.6258,1.77458 -0.24811,0.40408 -0.58789,0.76573 -0.98237,1.02886 -0.57686,0.38476 -1.26941,0.57558 -1.94097,0.7483 -0.67061,0.17248 -2.05827,0.28059 -2.05827,0.28059 h -5.07411 c 0,-3.53129 0.002,-7.06242 -0.002,-10.59366 z"
       id="path963-2"
       inkscape:connector-curvature="0"
       sodipodi:nodetypes="cccccccsccccsccccccccccsccccccccssccczaaaaaaaacccc" />
    <path
       style="fill:#585957;stroke:none;stroke-width:0.26458332px;stroke-linecap:butt;stroke-linejoin:miter;stroke-opacity:1;fill-opacity:1"
       d="m 264.77635,209.68914 h -18.91926 v 40.52673 h 10.10274 l -0.0698,-15.80886 c 0,0 2.93906,-0.11191 4.38475,0.10541 0.52789,0.0794 1.05156,0.10838 1.5415,0.43408 0.48995,0.32567 1.07888,0.96099 1.39423,1.32551 0.31536,0.36451 0.57609,0.7271 0.77722,1.14101 1.97108,4.05636 4.0845,12.89844 4.0845,12.89844 h 10.60711 v -0.46974 c 0,0 -2.43495,-6.84551 -3.58945,-10.2898 -0.44499,-1.32758 -0.80041,-2.68555 -1.28622,-3.99873 -0.23763,-0.64233 -0.45912,-1.29776 -0.7953,-1.89444 -0.31228,-0.55425 -0.70916,-1.05993 -1.12242,-1.54358 -0.22914,-0.26819 -0.48468,-0.5139 -0.74827,-0.7483 -0.28209,-0.25085 -0.57296,-0.49503 -0.88884,-0.70175 -0.1652,-0.10811 -0.33853,-0.20725 -0.52245,-0.27906 -0.11753,-0.0459 -0.36638,-0.0951 -0.36638,-0.0951 l -0.0134,-0.38653 c 0,0 1.30938,-0.25074 1.91719,-0.5116 0.81402,-0.34935 1.57791,-0.8306 2.2655,-1.38906 0.62956,-0.51133 1.20391,-1.10577 1.67018,-1.7694 0.44969,-0.64003 0.75093,-1.37509 1.05937,-2.09394 0.14439,-0.3365 0.2676,-0.68254 0.36845,-1.03455 0.10382,-0.36237 0.20177,-0.73009 0.24236,-1.10484 0.12821,-1.1837 0.11898,-2.38721 0,-3.57188 -0.0388,-0.38613 -0.11475,-0.77091 -0.23151,-1.14101 -0.20079,-0.63651 -0.47719,-1.25135 -0.79995,-1.83555 -0.30117,-0.54512 -0.63597,-1.08071 -1.05265,-1.54358 -0.49582,-0.55078 -1.0894,-1.01168 -1.6955,-1.43814 -0.77251,-0.54353 -1.62337,-1.05841 -2.45515,-1.41491 -0.83177,-0.3565 -1.63192,-0.64344 -2.51199,-0.85368 -0.88006,-0.21024 -2.13379,-0.3751 -3.34656,-0.51419 z m -8.74779,6.97013 h 5.43879 c 0.29755,0.0259 1.32578,0.10626 1.94328,0.33086 0.66545,0.24204 1.30616,0.60002 1.83391,1.07215 0.36945,0.33051 0.65147,0.7572 0.88831,1.19268 0.30997,0.56991 0.57716,1.18338 0.67852,1.82417 0.12204,0.77161 0.0489,1.57443 -0.0992,2.34146 -0.11889,0.61587 -0.29761,1.24007 -0.62581,1.77458 -0.24811,0.40408 -0.58789,0.76574 -0.98237,1.02886 -0.57685,0.38476 -1.26941,0.57558 -1.94096,0.7483 -0.67062,0.17248 -2.05827,0.28059 -2.05827,0.28059 h -5.07411 c 0,-3.53129 0.002,-7.06242 -0.002,-10.59365 z"
       id="path963-7"
       inkscape:connector-curvature="0"
       sodipodi:nodetypes="cccccccsccccsccccccccccsccccccccssccczaaaaaaaacccc" />
    <path
       style="fill:#585957;stroke:none;stroke-width:1.02980447;fill-opacity:1"
       d="M 1285.9785 822.67773 C 1284.8354 822.66587 1283.6944 822.67888 1282.5566 822.71875 C 1223.7713 822.65095 1207.6257 869.9289 1208.1895 902.92773 C 1207.2686 950.73435 1236.4975 983.70529 1281.6309 983.5 C 1326.3368 982.27643 1353.9166 956.46953 1356.332 909.02734 C 1358.7266 848.43294 1321.4148 823.04546 1285.9785 822.67773 z M 1283.418 852.31836 C 1299.7789 852.54847 1317.004 868.43617 1315.8984 906.35352 C 1314.7832 936.04084 1302.0509 952.18946 1281.4102 952.95508 C 1260.5721 953.08358 1247.0768 932.45245 1247.502 902.53711 C 1247.2417 881.88781 1254.6967 852.30299 1281.8379 852.3457 C 1282.3632 852.32075 1282.8902 852.31094 1283.418 852.31836 z "
       transform="matrix(0.26458333,0,0,0.26458333,0,-108.68583)"
       id="path991" />
    <path
       style="fill:#757575;stroke:none;stroke-width:0.17113096px;stroke-linecap:butt;stroke-linejoin:miter;stroke-opacity:1;fill-opacity:1"
       d="m 31.932683,268.92611 c -0.644086,0.0969 -1.27821,0.2652 -1.896311,0.46967 -0.673704,0.22288 -1.35187,0.46256 -1.963329,0.82137 -0.669069,0.39263 -1.302053,0.86854 -1.829632,1.43555 -0.461174,0.49563 -0.888548,1.05325 -1.134022,1.6828 -0.490219,1.25723 -0.692154,2.6545 -0.605437,4.00014 0.07559,1.17287 0.254467,2.44867 0.970933,3.39114 0.69144,1.02501 2.412703,2.25283 3.13759,2.62075 0.724887,0.36792 2.373888,1.01659 2.373888,1.01659 0,0 1.97706,0.7347 2.942156,1.15777 0.426435,0.18694 0.883814,0.3313 1.256711,0.60922 0.462938,0.34504 0.973005,0.73512 1.167688,1.27681 0.206869,0.57559 0.171213,1.28032 -0.095,1.83128 -0.298308,0.61737 -0.931293,1.05328 -1.544658,1.36508 -0.578638,0.29415 -1.256061,0.36154 -1.90324,0.42049 -0.736009,0.0669 -1.480037,-0.009 -2.215846,-0.0792 -0.749133,-0.0705 -1.504554,-0.14685 -2.231173,-0.34127 -1.064168,-0.28474 -2.069575,-0.76632 -3.078588,-1.19826 l -0.525613,5.63477 c 1.408958,0.40156 2.749255,0.63468 4.143558,0.84117 0.751104,0.11129 1.508657,0.21175 2.268045,0.21329 2.041248,0.004 4.14906,0.0521 6.09885,-0.54856 1.297586,-0.39976 2.569042,-1.03585 3.555258,-1.98063 0.348569,-0.33456 0.688134,-0.68261 0.980831,-1.06648 0.327086,-0.42895 0.656915,-0.87135 0.858145,-1.37107 0.391725,-0.9728 0.588703,-2.03132 0.643607,-3.07775 0.05295,-1.00923 0.0058,-2.05478 -0.30672,-3.01644 -0.301137,-0.92669 -0.854352,-1.88621 -1.470911,-2.52918 -0.647816,-0.66321 -1.459822,-1.15757 -2.268045,-1.61471 -0.862831,-0.48802 -1.808502,-0.8156 -2.727622,-1.18844 -1.268097,-0.51443 -2.74599,-0.63037 -3.842824,-1.44584 -0.619993,-0.46095 -1.3441,-1.07297 -1.402575,-1.84045 -0.06575,-0.86304 0.518581,-1.80616 1.245648,-2.2822 1.018068,-0.66655 1.789297,-0.65085 2.727253,-0.71571 1.022197,-0.0708 2.050683,0.14805 3.05218,0.36346 1.091209,0.2347 1.974749,0.60877 3.192857,1.00598 l 0.48281,-5.11135 c 0,0 -1.349802,-0.44498 -2.474259,-0.62993 -1.634763,-0.2689 -2.151941,-0.33314 -3.237555,-0.36341 -1.449943,-0.0404 -2.910467,0.0278 -4.34464,0.24357 z"
       id="path875-9"
       inkscape:connector-curvature="0"
       sodipodi:nodetypes="aaaaaaczcaaaaaaaaccaaacaaaacaaaasaaccsaa" />
    <path
       style="fill:#757575;stroke:none;stroke-width:0.16696478px;stroke-linecap:butt;stroke-linejoin:miter;stroke-opacity:1;fill-opacity:1"
       d="m 45.468101,269.43324 -0.01578,5.0159 6.212474,0.0106 -0.01056,20.70826 6.498472,-3.3e-4 v -20.71306 h 6.290281 v -5.02133 z"
       id="path899-36"
       inkscape:connector-curvature="0"
       sodipodi:nodetypes="ccccccccc" />
    <path
       style="fill:#585957;stroke:none;stroke-width:0.99999994px;stroke-linecap:butt;stroke-linejoin:miter;stroke-opacity:1;fill-opacity:1"
       d="M 152.86719 1015.2598 L 152.86719 1167.8535 L 258.31445 1167.8535 L 258.31445 1139.875 L 191.875 1139.875 L 191.875 1102.8535 L 251.8125 1102.8535 L 251.8125 1074.8535 L 192.15625 1074.8535 L 192.15625 1042.7363 L 255.625 1042.7363 L 255.625 1015.2598 L 152.86719 1015.2598 z "
       transform="matrix(0.26458333,0,0,0.26458333,0,-108.68583)"
       id="path1044" />
    <path
       inkscape:connector-curvature="0"
       style="fill:#757575;stroke:none;stroke-width:0.17061442px;stroke-linecap:butt;stroke-linejoin:miter;stroke-opacity:1;fill-opacity:1"
       d="m 2.941709,269.45805 v 25.88833 h 18.092539 v -4.7467 H 9.6346312 v -6.2809 H 19.918649 v -4.75035 H 9.6828878 v -5.44884 H 20.572795 v -4.66154 z"
       id="path1044-0" />
    <path
       inkscape:connector-curvature="0"
       style="fill:#757575;stroke:none;stroke-width:0.17061442px;stroke-linecap:butt;stroke-linejoin:miter;stroke-opacity:1;fill-opacity:1"
       d="m 187.39683,269.60072 v 25.88833 h 18.09254 v -4.7467 h -11.39962 v -6.2809 h 10.28402 v -4.75035 h -10.23576 v -5.44884 h 10.8899 v -4.66154 z"
       id="path1044-0-6" />
    <path
       inkscape:connector-curvature="0"
       style="fill:#757575;stroke:none;stroke-width:0.17061442px;stroke-linecap:butt;stroke-linejoin:miter;stroke-opacity:1;fill-opacity:1"
       d="m 270.09003,269.32009 v 25.88833 h 18.09253 v -4.7467 h -11.39961 v -6.2809 h 10.28402 v -4.75035 H 276.8312 v -5.44884 h 10.88991 v -4.66154 z"
       id="path1044-0-2" />
    <path
       style="fill:#585957;stroke:none;stroke-width:2.10976315;fill-opacity:1"
       d="m 373.60742,1010.6504 c -3.86747,-0.04 -7.85759,0.046 -12.38476,0.1055 -50.95189,0.6701 -79.37997,35.1759 -81.30078,79.666 -1.82493,42.2687 22.49121,82.9453 88.83203,81.4179 27.11431,-1.9573 43.24175,-4.7519 50.74609,-7.4238 v -85.25 h -60.375 v 28.125 h 23.75 v 34.1309 c -4.53962,1.0256 -9.16253,1.5619 -13.70312,1.5683 -29.63346,-2e-4 -49.4139,-22.6265 -49.41407,-51.8457 -1.48429,-34.5072 25.89089,-51.4386 50.42969,-53.3222 16.5923,-1.2737 29.16668,4.2727 41.96094,10.3984 l 3.18164,-30.1973 c -20.59322,-6.5264 -30.12023,-7.2526 -41.72266,-7.373 z"
       transform="matrix(0.26458333,0,0,0.26458333,0,-108.68583)"
       id="path1084"
       inkscape:connector-curvature="0"
       sodipodi:nodetypes="ccsccccccccccccc" />
    <path
       style="fill:#585957;stroke:none;stroke-width:0.99999994px;stroke-linecap:butt;stroke-linejoin:miter;stroke-opacity:1;fill-opacity:1"
       d="M 1128.2109 1202.6309 L 1070.3828 1356.25 L 1111.2598 1356.25 L 1122.3555 1323.2812 L 1179.8086 1323.2812 L 1190.3418 1356.25 L 1233.459 1356.25 L 1176.25 1202.6309 L 1128.2109 1202.6309 z M 1151.75 1236.041 L 1169.75 1294.291 L 1133.125 1294.291 L 1151.75 1236.041 z "
       transform="matrix(0.26458333,0,0,0.26458333,0,-108.68583)"
       id="path843" />
    <path
       inkscape:connector-curvature="0"
       style="fill:#585957;stroke:none;stroke-width:0.26458332px;stroke-linecap:butt;stroke-linejoin:miter;stroke-opacity:1;fill-opacity:1"
       d="m 249.6788,159.81045 -15.30035,40.64505 h 10.81537 l 2.93574,-8.72299 h 15.20113 l 2.78691,8.72299 h 11.40809 l -15.13654,-40.64505 z m 6.22806,8.83976 4.7625,15.41198 h -9.69037 z"
       id="path843-3" />
    <path
       inkscape:connector-curvature="0"
       style="fill:#585957;stroke:none;stroke-width:0.26458332px;stroke-linecap:butt;stroke-linejoin:miter;stroke-opacity:1;fill-opacity:1"
       d="m 57.14157,209.22089 -15.30035,40.64505 h 10.81537 l 2.93574,-8.72299 h 15.20113 l 2.786912,8.72299 h 11.408089 l -15.13654,-40.64505 z m 6.22806,8.83976 4.7625,15.41198 h -9.69037 z"
       id="path843-3-6" />
    <path
       inkscape:connector-curvature="0"
       style="fill:#585957;stroke:none;stroke-width:0.26458332px;stroke-linecap:butt;stroke-linejoin:miter;stroke-opacity:1;fill-opacity:1"
       d="m 134.79194,209.41659 -15.30035,40.64505 h 10.81537 l 2.93574,-8.72299 h 15.20113 l 2.78692,8.72299 h 11.40808 l -15.13654,-40.64505 z m 6.22806,8.83976 4.7625,15.41198 h -9.69037 z"
       id="path843-3-7" />
    <path
       inkscape:connector-curvature="0"
       style="fill:#757575;stroke:none;stroke-width:0.16881976px;stroke-linecap:butt;stroke-linejoin:miter;stroke-opacity:1;fill-opacity:1"
       d="m 72.747877,269.37912 -9.650391,26.23529 h 6.82158 l 1.85166,-5.63046 h 9.587809 l 1.75779,5.63046 h 7.195425 l -9.547072,-26.23529 z m 3.928226,5.70583 3.003851,9.94802 h -6.112009 z"
       id="path843-3-5" />
    <path
       inkscape:connector-curvature="0"
       style="fill:#757575;stroke:none;stroke-width:0.16881976px;stroke-linecap:butt;stroke-linejoin:miter;stroke-opacity:1;fill-opacity:1"
       d="m 343.65424,269.47401 -9.65039,26.23529 h 6.82158 l 1.85166,-5.63046 h 9.58781 l 1.75779,5.63046 h 7.19542 l -9.54707,-26.23529 z m 3.92823,5.70583 3.00385,9.94802 h -6.11201 z"
       id="path843-3-5-3" />
    <path
       inkscape:connector-curvature="0"
       style="fill:#757575;stroke:none;stroke-width:0.17417082;fill-opacity:1"
       d="m 132.14971,268.78299 c -0.1918,-0.002 -0.38326,1.7e-4 -0.57418,0.007 -9.86397,-0.0115 -12.57314,8.04811 -12.47854,13.67356 -0.15452,8.14979 4.74998,13.77049 12.32321,13.73549 7.50149,-0.20858 12.12929,-4.60799 12.53458,-12.69566 0.4018,-10.32979 -5.85899,-14.65768 -11.80507,-14.72039 z m -0.42964,5.05297 c 2.7453,0.0392 5.63561,2.74766 5.45009,9.2116 -0.18713,5.06091 -2.32355,7.81383 -5.787,7.94435 -3.49655,0.0219 -5.76102,-3.49516 -5.68967,-8.59496 -0.0438,-3.52017 1.20724,-8.56361 5.76144,-8.55633 0.0882,-0.005 0.17656,-0.006 0.26514,-0.005 z"
       id="path991-5" />
    <path
       style="fill:#585957;stroke:none;stroke-width:0.99999994px;stroke-linecap:butt;stroke-linejoin:miter;stroke-opacity:1;fill-opacity:1"
       d="M 1058.25 1014.916 L 1058.3438 1167.916 L 1157.5 1167.916 L 1157.5 1138.416 L 1097.5 1138.416 L 1097.5 1014.916 L 1058.25 1014.916 z "
       transform="matrix(0.26458333,0,0,0.26458333,0,-108.68583)"
       id="path925" />
    <path
       inkscape:connector-curvature="0"
       style="fill:#585957;stroke:none;stroke-width:0.26458332px;stroke-linecap:butt;stroke-linejoin:miter;stroke-opacity:1;fill-opacity:1"
       d="m 333.69208,209.4463 0.0249,40.48125 H 359.952 v -7.80521 H 344.077 V 209.4463 Z"
       id="path925-6" />
    <path
       inkscape:connector-curvature="0"
       style="fill:#757575;stroke:none;stroke-width:0.17050858px;stroke-linecap:butt;stroke-linejoin:miter;stroke-opacity:1;fill-opacity:1"
       d="m 316.76907,269.41763 0.0161,26.15786 h 16.86167 v -5.04351 h -10.20311 v -21.11435 z"
       id="path925-2" />
    <path
       style="fill:#585957;stroke:none;stroke-width:0.99999994px;stroke-linecap:butt;stroke-linejoin:miter;stroke-opacity:1;fill-opacity:1"
       d="M 1370.8809 1014.1094 L 1328.6621 1014.3027 L 1298.248 1078.7988 L 1267.5234 1014.584 L 1221.8555 1014.793 L 1276.7207 1109.8223 L 1276.7207 1168.291 L 1316.3711 1168.291 L 1316.3711 1110.166 L 1370.8809 1014.1094 z "
       transform="matrix(0.26458333,0,0,0.26458333,0,-108.68583)"
       id="path958" />
    <path
       style="fill:#585957;stroke:none;stroke-width:1.53778315;fill-opacity:1"
       d="m 82.474609,1199 c -17.797974,0.1437 -31.355023,4.866 -45.863281,14.8848 -17.972978,12.4113 -29.2142271,30.0637 -30.3320311,65.0254 -0.6778841,43.852 27.4917491,77.783 75.6523441,79.7793 14.306673,1.1388 45.603649,-2.7249 52.230469,-5.7637 l -2.48828,-33.1153 c -11.42856,6.3094 -20.9411,8.6649 -39.506888,9.3063 -28.555739,6e-4 -46.666928,-23.1076 -46.666942,-50.4137 -0.615198,-29.4594 17.680994,-50.7267 52.058631,-51.0324 14.334969,1.061 21.709819,3.4707 33.391199,10.9439 l 2.42314,-32.3511 C 111.95696,1201.1733 96.317479,1198.8882 82.474609,1199 Z"
       transform="matrix(0.26458333,0,0,0.26458333,0,-108.68583)"
       id="path851"
       inkscape:connector-curvature="0"
       sodipodi:nodetypes="cccccccccccc" />
    <path
       style="fill:#757575;stroke:none;stroke-width:1.22592211;fill-opacity:1"
       d="M 624.63477 1428.9668 C 616.87801 1428.9651 609.39426 1428.9903 602.54297 1428.9922 C 602.49167 1463.4101 602.54297 1492.7513 602.54297 1527.9883 L 648.50586 1527.9883 C 674.66695 1526.9897 693.08983 1507.6822 694.21094 1478.6387 C 694.21104 1451.474 673.68334 1429.2962 648.36133 1429.1035 C 640.42126 1428.997 632.39152 1428.9685 624.63477 1428.9668 z M 636.87305 1448.1133 C 639.72697 1448.1066 642.70067 1448.1164 646.17383 1448.1816 C 657.37514 1450.3315 669.19679 1462.2476 667.63672 1478.4395 C 667.68438 1496.5963 657.77453 1508.4767 646.29883 1508.6777 L 628.28906 1508.8027 C 628.28906 1487.2124 628.26639 1469.233 628.28906 1448.1445 C 631.28596 1448.1438 634.01913 1448.1199 636.87305 1448.1133 z "
       transform="matrix(0.26458333,0,0,0.26458333,0,-108.68583)"
       id="path859" />
    <path
       inkscape:connector-curvature="0"
       style="fill:#757575;stroke:none;stroke-width:0.32435855;fill-opacity:1"
       d="m 97.768625,269.21326 c -2.05231,0 -4.032385,0.006 -5.845122,0.007 -0.01357,9.1064 0,16.86959 0,26.19271 h 12.161017 c 6.92179,-0.26421 11.79618,-5.37265 12.0928,-13.05708 3e-5,-7.18732 -5.43126,-13.0552 -12.13104,-13.10619 -2.10081,-0.0282 -4.225348,-0.0357 -6.277655,-0.0362 z m 3.238045,5.06585 c 0.7551,-0.003 1.54189,0 2.46083,0.018 2.96368,0.56883 6.0915,3.72162 5.67873,8.00573 0.0126,4.80399 -2.60937,7.94734 -5.64566,8.00052 l -4.765081,0.0331 c 0,-5.71243 -0.006,-10.46948 0,-16.04914 0.79293,-1.8e-4 1.516081,-0.007 2.271181,-0.008 z"
       id="path859-6" />
    <path
       style="fill:#757575;stroke:none;stroke-width:0.97262549;fill-opacity:1"
       d="m 835.10156,1429.0039 v 99.293 h 25.18555 v -35.2344 h 15.75391 v -0.02 c 20.40164,0.033 31.69613,-13.0005 32.65234,-31.9805 1.38508,-23.5437 -17.62028,-30.5531 -31.88086,-32.1133 -14.47016,0.08 -27.10687,0.055 -41.71094,0.055 z m 36.58789,17.7227 c 6.23237,0.057 11.2852,6.6293 11.28516,14.6796 -0.27591,8.6072 -4.81108,14.3291 -11.25,14.625 h -11.3125 c 0,-10.4426 -0.0113,-19.138 0,-29.3378 3.87143,-7e-4 7.66405,-0.028 11.27734,0.033 z"
       transform="matrix(0.26458333,0,0,0.26458333,0,-108.68583)"
       id="rect901"
       inkscape:connector-curvature="0"
       sodipodi:nodetypes="sccccccccscccccsc" />
    <path
       style="fill:#757575;stroke:none;stroke-width:1.34802294;fill-opacity:1"
       d="M 1106.002 1429.4551 L 1106.002 1527.8086 L 1151.2285 1527.8086 C 1172.1949 1527.1367 1182.2645 1513.6929 1182.6562 1502.002 C 1182.6562 1490.6977 1174.5871 1480.6975 1162.7207 1477.2832 C 1172.9521 1473.5663 1179.7763 1463.5021 1179.7773 1453.2754 C 1179.1008 1437.9342 1163.8358 1429.2122 1150.6445 1429.4551 L 1106.002 1429.4551 z M 1136.5176 1446.7129 C 1138.5682 1446.7129 1140.6919 1446.7157 1142.791 1446.7422 C 1149.4852 1446.7853 1154.9121 1451.7535 1154.9121 1457.8379 C 1154.6158 1464.3432 1149.7442 1468.6673 1142.8281 1468.8906 L 1130.6777 1468.8906 C 1130.6777 1460.9981 1130.6626 1454.4277 1130.6777 1446.7188 C 1132.489 1446.7188 1134.467 1446.7148 1136.5176 1446.7148 L 1136.5176 1446.7129 z M 1137.0898 1486.8047 C 1139.2899 1486.8047 1141.5682 1486.8095 1143.8203 1486.8359 C 1151.0024 1486.8804 1156.8242 1492.006 1156.8242 1498.2852 C 1156.5063 1504.9988 1151.2816 1509.4628 1143.8613 1509.6934 L 1130.8242 1509.6934 C 1130.8242 1501.5481 1130.8091 1494.7645 1130.8242 1486.8086 C 1132.7675 1486.8086 1134.8898 1486.8066 1137.0898 1486.8066 L 1137.0898 1486.8047 z "
       transform="matrix(0.26458333,0,0,0.26458333,0,-108.68583)"
       id="rect926" />
    <path
       style="fill:#a61b34;stroke:none;stroke-width:0.26458332px;stroke-linecap:butt;stroke-linejoin:miter;stroke-opacity:1;fill-opacity:1"
       d="m 353.15323,81.354409 v -9.073801 c -15.24714,9.687262 -31.8597,11.6384 -48.25402,6.501776 -17.4315,-5.239527 -32.32253,-12.045057 -48.58774,-16.066683 -21.9508,-5.469679 -53.43072,-9.826061 -69.59832,11.55223 l -0.18575,10.337146 c 13.38806,-17.71008 35.32286,-19.777317 56.49972,-15.573529 17.22167,3.124708 35.99547,10.974431 51.851,16.03469 23.78579,9.168075 36.88874,7.350236 58.27511,-3.711829 z"
       id="path980"
       inkscape:connector-curvature="0"
       sodipodi:nodetypes="ccccccccc" />
    <path
       style="fill:#d6d6d5;stroke:none;stroke-width:0.27034828px;stroke-linecap:butt;stroke-linejoin:miter;stroke-opacity:1;fill-opacity:1"
       d="m 354.35854,66.497614 0.0468,-9.750234 C 338.72594,66.582571 321.35681,68.851464 304.49771,63.636408 286.1478,59.051507 271.09182,52.594481 254.83019,47.390527 231.31128,41.416125 196.74817,35.235452 183.2588,57.92854 l 0.007,11.354888 c 14.49626,-17.251854 36.23317,-19.173913 57.50004,-15.416272 17.7099,3.172423 37.61733,10.746943 53.92237,15.884474 24.7207,8.707707 37.788,7.721845 59.66991,-3.254016 z"
       id="path980-2"
       inkscape:connector-curvature="0"
       sodipodi:nodetypes="ccccccccc" />
    <path
       style="fill:#a61b34;stroke:none;stroke-width:0.26454592px;stroke-linecap:butt;stroke-linejoin:miter;stroke-opacity:1;fill-opacity:1"
       d="m 6.3941161,80.200228 v -9.0738 C 23.474236,79.505343 38.855859,83.198954 54.634501,77.628203 72.061075,72.388675 86.947895,65.583146 103.20851,61.56152 c 21.9446,-5.469679 53.41562,-9.826061 69.57866,11.55223 l 0.1857,10.337147 C 159.58857,65.740816 137.65998,63.673579 116.48909,67.877368 99.272308,71.002076 80.50381,78.851798 64.652758,83.912057 40.87369,93.080129 27.774443,91.262294 6.3941161,80.200228 Z"
       id="path980-7"
       inkscape:connector-curvature="0"
       sodipodi:nodetypes="ccccccccc" />
    <path
       style="fill:#d6d6d5;stroke:none;stroke-width:0.2703101px;stroke-linecap:butt;stroke-linejoin:miter;stroke-opacity:1;fill-opacity:1"
       d="M 5.1560737,66.302548 5.12098,56.05536 c 5.479664,2.319063 30.34228,14.649041 49.227024,8.602058 17.776785,-5.410994 33.255385,-13.415649 50.308296,-17.461957 23.26063,-5.939289 55.11914,-12.349257 71.71652,9.909628 l -0.17136,11.983272 C 161.70831,51.836508 139.97753,49.914451 118.71668,53.67209 101.01178,56.844513 81.109978,64.419033 64.809543,69.556565 40.095827,78.264273 27.03222,77.278409 5.1564933,66.302548 Z"
       id="path980-2-0"
       inkscape:connector-curvature="0"
       sodipodi:nodetypes="cccccccccc" />
    <path
       style="fill:#d6d6d5;stroke:none;stroke-width:0.26458332px;stroke-linecap:butt;stroke-linejoin:miter;stroke-opacity:1;fill-opacity:1"
       d="m 357.57321,48.637281 4.87288,-116.367916 c -6.75336,3.557142 -11.9224,4.777682 -18.88464,5.093232 -11.80374,0.290782 -28.6454,-8.373246 -40.66489,-16.413329 -19.96593,-12.021259 -41.75793,-25.475608 -62.78719,-27.573648 -22.59465,-1.9506 -46.6636,4.13125 -57.97855,19.20143 V 53.220951 l 0.0935,0.04677 c 15.39332,-16.861841 30.98528,-18.476126 46.70637,-16.884819 32.6432,3.847063 64.35216,20.044928 93.59635,23.8125 14.55195,0.884789 24.75536,-3.101864 35.04617,-11.558121 z"
       id="path1036"
       inkscape:connector-curvature="0"
       sodipodi:nodetypes="ccccccccccc" />
    <path
       style="fill:#590423;stroke:none;stroke-width:0.26518103px;stroke-linecap:butt;stroke-linejoin:miter;stroke-opacity:1;fill-opacity:1"
       d="M 5.0231166,48.673678 0.64268875,-67.600696 c 5.50209275,3.813506 10.57081625,4.881051 18.08139125,5.093232 11.857132,0.290783 28.774973,-8.373245 40.84883,-16.413329 20.056242,-12.021258 41.85327,-25.241747 62.97766,-27.339787 22.8132,-2.56184 46.44868,3.70525 58.2408,19.201431 V 53.584753 l -0.0939,0.04677 C 165.23449,36.769681 148.54675,35.221543 132.75455,36.81285 99.818836,40.732349 67.525928,57.829595 39.76009,60.559204 24.868062,60.758355 15.360476,57.129936 5.0231166,48.673678 Z"
       id="path1036-9"
       inkscape:connector-curvature="0"
       sodipodi:nodetypes="ccccccccccc" />
    <path
       style="fill:#ffffff;stroke:none;stroke-width:0.99999994px;stroke-linecap:butt;stroke-linejoin:miter;stroke-opacity:1;fill-opacity:1"
       d="M 840.53516,15.726562 C 792.73649,14.484921 744.75643,32.271346 714.56445,60.244141 l 51.92774,65.462889 -71.57031,23.59961 0.78124,30.46875 277.67383,-99.367187 20.99219,43.917967 -266.24414,110.72266 -32.42188,-18.16406 0.35547,63.64062 15.60547,-3.10742 229.53321,136.24219 -245.27735,93.35937 0.41406,86.45508 34.25,-30.66016 -18.91992,-18.50586 C 816.0605,509.62022 881.43643,480.34773 988.68169,441.41324 l 186.70891,110.82309 -80.7785,43.94735 c 15.505,6.5373 42.1251,16.53899 53.1906,20.84757 l 74.1211,-38.3789 c 7.0552,3.26669 20.322,11.08384 27.5879,15.18555 0.9106,9.57951 0.9306,15.28951 0.6836,29.49218 l 3.125,6.83594 c 19.225,-3.33693 40.4618,-7.37036 54.8828,-15.625 15.1464,-8.31595 27.5842,-21.18274 32.3985,-35.70508 -15.2047,-0.90359 -26.1299,-0.1418 -38.2539,0 l -34.3789,-22.10742 73.0468,-38.67188 -1.2422,-53.71289 -118.9101,63.5293 -175.1192,-106.61719 284.5,-100.54297 19.336,39.22266 2.209,-142.52539 -11.0489,-42.53711 -52.7558,6.35351 -23.9219,-7.89648 -98.9941,44.63281 13.8378,-81.15625 -47.2656,-25.19531 -24.8535,83.14844 -59.6621,-63.80469 68.2246,-29.00196 -25.6875,-16.021479 -58.2812,23.753909 -18.5059,-43.640628 21.8203,-9.390625 -86.17772,-31.212891 14.91601,33.421875 -155.23242,51.652339 -49.44336,-66.568354 z m 166.49604,131.626958 85.9376,105.07812 -186.32818,88.28125 -149.60937,-89.84375 z m 281.25,42.96875 23.8282,89.45312 -317.18752,113.28125 -58.98438,-36.71875 z"
       transform="matrix(0.26458333,0,0,0.26458333,0,-108.68583)"
       id="path1053"
       inkscape:connector-curvature="0"
       sodipodi:nodetypes="ccccccccccccccccccccccccccccccccccccccccccccccccccccccccccccccc" />
    <path
       style="fill:#a61b34;stroke:none;stroke-width:1.22543609;fill-opacity:1"
       d="M 1164.6543 223.55469 C 1123.1608 223.55433 1089.5234 251.22445 1089.5234 285.35742 C 1089.5344 310.01074 1107.3551 332.30072 1134.8691 342.07422 L 1134.7656 342.08008 L 1165.8203 409.85352 L 1202.6035 338.61133 C 1227.9235 328.12065 1241.5797 307.73446 1239.7852 285.35742 C 1239.7852 251.22445 1206.1478 223.55433 1164.6543 223.55469 z M 1166.5879 418.35547 A 31.074029 22.856675 0 0 0 1135.5137 441.21094 A 31.074029 22.856675 0 0 0 1166.5879 464.06836 A 31.074029 22.856675 0 0 0 1197.6621 441.21094 A 31.074029 22.856675 0 0 0 1166.5879 418.35547 z "
       transform="matrix(0.26458333,0,0,0.26458333,0,-108.68583)"
       id="path1062" />
    <path
       style="fill:#f4f5f6;stroke:none;stroke-width:0.99999994px;stroke-linecap:butt;stroke-linejoin:miter;stroke-opacity:1;fill-opacity:1"
       d="M 517.38281 13.564453 L 517.38281 45.205078 L 605.27344 45.205078 L 517.38281 13.564453 z "
       transform="matrix(0.26458333,0,0,0.26458333,0,-108.68583)"
       id="path864" />
    <rect
       style="fill:#f4f5f6;stroke:none;stroke-width:0.2531006;fill-opacity:1"
       id="rect867"
       width="32.669636"
       height="7.9321761"
       x="131.09804"
       y="-95.453949" />
    <rect
       style="fill:#f4f5f6;stroke:none;stroke-width:0.26458332;fill-opacity:1"
       id="rect869"
       width="41.702881"
       height="12.350667"
       x="127.12402"
       y="-85.71817" />
    <path
       style="fill:#f4f5f6;stroke:none;stroke-width:2.44560027;fill-opacity:1"
       d="m 638.77539,142.03516 v 418.78515 c 8.0375,4.87082 16.50499,10.80294 23.82813,15.77344 V 142.03516 Z"
       transform="matrix(0.26458333,0,0,0.26458333,0,-108.68583)"
       id="rect873"
       inkscape:connector-curvature="0"
       sodipodi:nodetypes="ccccc" />
    <path
       style="fill:#f4f5f6;stroke:none;stroke-width:2.39900684;fill-opacity:1"
       d="M 588.34375 141.80469 L 588.34375 537.36719 L 612.21875 546.75 L 612.21875 141.80469 L 588.34375 141.80469 z "
       transform="matrix(0.26458333,0,0,0.26458333,0,-108.68583)"
       id="rect873-3" />
    <rect
       style="fill:#f4f5f6;stroke:none;stroke-width:0.61885214;fill-opacity:1"
       id="rect873-6"
       width="6.3326893"
       height="104.70039"
       x="143.91019"
       y="-71.338913" />
    <rect
       style="fill:#f4f5f6;stroke:none;stroke-width:0.61854404;fill-opacity:1"
       id="rect873-7"
       width="6.3329973"
       height="104.59108"
       x="131.59581"
       y="-71.229416" />
    <path
       style="fill:#f4f5f6;stroke:none;stroke-width:2.64395165;fill-opacity:1"
       d="M 449.73828 142.27344 L 449.73828 547.85938 L 478.75391 539.87891 L 478.75391 142.27344 L 449.73828 142.27344 z "
       transform="matrix(0.26458333,0,0,0.26458333,0,-108.68583)"
       id="rect873-7-5" />
    <path
       style="fill:#f4f5f6;fill-opacity:1;stroke:#f4f5f6;stroke-width:1px;stroke-linecap:butt;stroke-linejoin:miter;stroke-opacity:1"
       d="m 138.18359,165.00586 c 0,0 -50.222035,43.58314 -54.146481,47.22461 -1.232208,1.14336 -0.815184,3.50306 -0.136718,5.04101 0.540084,1.22427 1.775571,2.17886 3.037109,2.625 1.324662,0.46846 3.088929,0.70448 4.212891,-0.13867 1.275152,-0.95656 13.050779,-11.46289 13.050779,-11.46289 H 428.4668 l 20.90625,14.32813 0.19531,-18.50586 -44.51563,-39.11133 z"
       transform="matrix(0.26458333,0,0,0.26458333,0,-108.68583)"
       id="path947"
       inkscape:connector-curvature="0"
       sodipodi:nodetypes="csaascccccc" />
    <path
       style="fill:#f4f5f6;stroke:none;stroke-width:0.23559634;fill-opacity:1"
       d="m 35.736455,-43.268089 v 12.209572 h 14.321467 v -12.209572 z"
       id="rect972"
       inkscape:connector-curvature="0" />
    <path
       style="fill:#f4f5f6;stroke:#590423;stroke-width:3.77952761;stroke-linecap:butt;stroke-linejoin:miter;stroke-opacity:1;stroke-miterlimit:4;stroke-dasharray:none;fill-opacity:1"
       d="m 102.39258,220.40039 v 158.88672 h 5.85937 l 12.10938,-20.94727 c 6.04362,2.58121 60.25204,27.16797 90.57617,40.08789 l 134.39844,108.03907 -9.66797,17.33203 -22.58008,-16.08789 v 77.33789 L 432.91016,549.4043 V 220.40039 Z m 28.5664,23.53516 h 61.52149 v 53.02734 h -61.03516 l -0.48633,-52.93359 z m 164.25586,0.29297 v 52.73437 h -60.74218 l 0.0117,-52.45312 z m 97.82422,0.67773 v 52.73437 h -60.74218 l 0.0137,-52.45507 z m -97.77929,78.16797 v 52.73437 h -60.74219 l 0.0117,-52.45312 z m -102.47461,0.27539 v 52.73437 l -31.28185,-0.10358 -29.40472,-12.74833 -0.0437,-39.60121 z m 199.70117,0.55273 v 52.73438 h -60.74219 l 0.0137,-52.45313 z m -96.94922,74.57813 v 52.73437 H 279.1875 l -44.38477,-35.47265 0.004,-16.98047 z m 97.22656,0.27539 v 52.73437 h -60.74219 l 0.0117,-52.45312 z m 0.33985,77.60156 v 52.73438 h -60.74219 l 0.002,-5.66797 4.94141,3.51953 11.42578,-20.3125 -16.36133,-12.86914 0.004,-17.12305 z"
       transform="matrix(0.26458333,0,0,0.26458333,0,-108.68583)"
       id="path982"
       sodipodi:nodetypes="cccccccccccccccccccccccccccccccccccccccccccccccccccccccccccccccc" />
    <path
       style="fill:#f4f5f6;stroke:none;stroke-width:0.23559636;fill-opacity:1"
       d="m 62.912509,-43.195431 v 12.20957 h 14.321467 v -12.20957 z"
       id="rect972-3"
       inkscape:connector-curvature="0" />
    <path
       style="fill:#f4f5f6;stroke:none;stroke-width:0.23559637;fill-opacity:1"
       d="m 88.795305,-43.016341 v 12.209567 h 14.321465 v -12.209567 z"
       id="rect972-3-5"
       inkscape:connector-curvature="0" />
    <path
       style="fill:#f4f5f6;stroke:none;stroke-width:0.89044297;fill-opacity:1"
       d="m 135.34961,326.64453 0.0488,35.15625 26.86523,11.13672 27.21485,-0.14648 v -46.14649 z"
       transform="matrix(0.26458333,0,0,0.26458333,0,-108.68583)"
       id="rect972-3-2"
       inkscape:connector-curvature="0"
       sodipodi:nodetypes="cccccc" />
    <path
       style="fill:#f4f5f6;stroke:none;stroke-width:0.23559637;fill-opacity:1"
       d="m 62.924449,-22.334273 v 12.209567 h 14.321468 v -12.209567 z"
       id="rect972-3-1"
       inkscape:connector-curvature="0" />
    <path
       style="fill:#f4f5f6;stroke:none;stroke-width:0.23559637;fill-opacity:1"
       d="M 88.649141,-22.115028 V -9.905461 H 102.97061 V -22.115028 Z"
       id="rect972-3-7"
       inkscape:connector-curvature="0" />
    <path
       style="fill:#f4f5f6;fill-opacity:1;stroke:none;stroke-width:0.890443"
       d="m 238.10156,401.77344 0,18.46093 34.36719,27.68555 19.75977,0 v -46.14648 z"
       transform="matrix(0.26458333,0,0,0.26458333,0,-108.68583)"
       id="rect972-3-9"
       sodipodi:nodetypes="cccccc" />
    <path
       style="fill:#f4f5f6;stroke:none;stroke-width:0.23559637;fill-opacity:1"
       d="M 88.722223,-2.3099384 V 9.8996291 H 103.04369 V -2.3099384 Z"
       id="rect972-3-6"
       inkscape:connector-curvature="0" />
    <path
       style="fill:#f4f5f6;stroke:none;stroke-width:0.89044297;fill-opacity:1"
       d="M 335.66797 479.65234 L 335.66797 493.37695 L 351.75781 506.33789 L 339.92383 525.79883 L 389.79688 525.79883 L 389.79688 479.65234 L 335.66797 479.65234 z "
       transform="matrix(0.26458333,0,0,0.26458333,0,-108.68583)"
       id="rect972-3-8" />
    <path
       style="fill:#f4f5f6;stroke:#590423;stroke-width:0.264583px;stroke-linecap:butt;stroke-linejoin:miter;stroke-opacity:1;fill-opacity:1"
       d="M 17.539563,30.140347 55.810546,-3.2684971 C 48.004016,-7.1656057 32.973862,-13.371701 31.845601,-13.875082 l -3.20394,5.5422986 -18.145329,0.6260438 V 4.8176034 L 6.5407952,7.8870267 V 24.905884 Z"
       id="path1127"
       inkscape:connector-curvature="0"
       sodipodi:nodetypes="ccccccccc" />
    <path
       style="fill:#e7e8e6;stroke:#590423;stroke-width:0.99999994px;stroke-linecap:butt;stroke-linejoin:miter;stroke-opacity:1;fill-opacity:1"
       d="M 109.76562 380.6543 L 41.699219 382.90039 L 69.433594 393.64258 L 133.20312 393.1543 L 109.76562 380.6543 z "
       transform="matrix(0.26458333,0,0,0.26458333,0,-108.68583)"
       id="path1132" />
    <path
       style="fill:#e6e7e6;stroke:none;stroke-width:0.26458332px;stroke-linecap:butt;stroke-linejoin:miter;stroke-opacity:1;fill-opacity:1"
       d="M 19.914712,13.514304 35.334911,-2.1251399 h -15.93177 z"
       id="path1135"
       inkscape:connector-curvature="0" />
    <path
       style="fill:#e6e7e6;stroke:#590423;stroke-width:0.99999994px;stroke-linecap:butt;stroke-linejoin:miter;stroke-opacity:1;fill-opacity:1"
       d="M 208.95508 427.02148 L 97.070312 531.5332 L 98.242188 629.18945 L 130.37109 632.90039 L 176.46484 628.79883 L 308.59961 586.8457 L 308.59961 507.50391 L 208.95508 427.02148 z "
       transform="matrix(0.26458333,0,0,0.26458333,0,-108.68583)"
       id="path1139" />
    <path
       style="fill:#f4f5f6;stroke:none;stroke-width:0.99999994px;stroke-linecap:butt;stroke-linejoin:miter;stroke-opacity:1;fill-opacity:1"
       d="M 29.199219 520.20508 L 29.199219 591.29883 L 98.242188 629.18945 L 97.070312 531.5332 L 82.8125 545.10742 L 29.199219 520.20508 z "
       transform="matrix(0.26458333,0,0,0.26458333,0,-108.68583)"
       id="path1142" />
  </g>
</svg>
